<?xml version="1.0" encoding="utf-8"?>
<!-- Generator: Adobe Illustrator 16.0.4, SVG Export Plug-In . SVG Version: 6.00 Build 0)  -->
<!DOCTYPE svg PUBLIC "-//W3C//DTD SVG 1.1//EN" "http://www.w3.org/Graphics/SVG/1.1/DTD/svg11.dtd">
<svg version="1.1" id="Layer_1" xmlns="http://www.w3.org/2000/svg" xmlns:xlink="http://www.w3.org/1999/xlink" x="0px" y="0px"
	 width="300px" height="32.237px" viewBox="0 0 300 32.237" enable-background="new 0 0 300 32.237" xml:space="preserve">
<path fill="#52D05B" d="M18.467,0.927c3.62,0,6.597,2.936,6.597,6.598v5.473c0,3.621-2.937,6.557-6.56,6.557H6.639
	c-1.409,0-2.577,1.167-2.577,2.615v6.074h19.796c1.087,0,1.972,0.885,1.972,2.011c0,1.087-0.885,1.974-1.972,1.974H2.09
	c-1.085,0-2.051-0.887-2.051-1.974V22.17c0-3.662,2.936-6.6,6.599-6.6h11.866c1.41,0,2.578-1.208,2.578-2.573V7.524
	c0-1.447-1.208-2.577-2.616-2.577H6.599c-1.45,0-2.616,1.169-2.616,2.577v2.093c0,1.166-0.887,2.052-1.972,2.052
	C0.886,11.669,0,10.783,0,9.617V7.524c0-3.662,2.934-6.598,6.599-6.598H18.467z"/>
<path fill="#52D05B" d="M30.64,32.233c-1.125,0-2.052-0.925-2.052-2.011c0-1.13,0.885-2.014,2.01-2.014l5.936,0.007h12.271
	c1.525,0,2.737-1.25,2.737-2.739v-3.783c0-1.445-0.885-2.536-1.248-2.734H36.492c-1.004,0-1.89-0.765-2.051-1.89
	c0-1.208,0.967-2.134,2.051-2.134h13.802c0.442-0.361,1.248-1.449,1.248-2.736V7.694c0-1.49-1.212-2.697-2.737-2.697H30.594
	c0,0-2.006,0.003-2.006-2.031c0-2.039,2.006-2.03,2.006-2.03h18.211c3.742,0,6.799,3.017,6.799,6.759v4.505
	c0,1.849-0.763,3.542-1.77,4.751c1.007,1.203,1.77,2.895,1.77,4.743v3.783c0,3.739-3.057,6.761-6.799,6.761H36.533L30.64,32.233z"/>
<path fill="#FFFFFF" d="M59.91,15.691c0-1.126,0.885-2.012,2.053-2.012c1.049,0,2.014,0.886,2.014,2.012v2.775
	c0,1.048-0.965,2.01-2.014,2.01c-1.168,0-2.053-0.962-2.053-2.01V15.691z M59.91,26.353c0-1.125,0.885-2.011,2.053-2.011
	c1.049,0,2.014,0.886,2.014,2.011v2.733c0,1.09-0.965,2.059-2.014,2.059c-1.168,0-2.053-0.969-2.053-2.059V26.353z"/>
<path fill="#FFFFFF" d="M91.615,0.042c1.166,0,2.094,0.925,2.094,2.091c0,1.087-0.928,2.091-2.094,2.091h-19.19
	c-1.569,0-2.815,1.209-2.815,2.736v4.344c0,1.491,1.246,2.735,2.815,2.735H86.83c3.777,0,6.879,3.101,6.879,6.965v4.303
	c0,3.822-3.102,6.922-6.879,6.922H67.556c-1.169,0-2.051-0.928-2.051-2.096c0-1.125,0.882-2.051,2.051-2.051H86.83
	c1.491,0,2.732-1.244,2.732-2.775v-4.303c0-1.532-1.241-2.776-2.732-2.776H72.425c-3.823,0-6.92-3.101-6.92-6.923V6.96
	c0-3.823,3.097-6.918,6.92-6.918H91.615z"/>
<path fill="#FFFFFF" d="M124.734,28.082c1.081,0,2.092,0.967,2.092,2.051c0,1.168-1.011,2.096-2.092,2.096h-18.307
	c-3.83,0-6.92-3.1-6.92-6.922V6.96c0-3.823,3.09-6.918,6.92-6.918h18.307c1.122,0,2.047,0.925,2.047,2.091
	c0,1.087-0.925,2.091-2.047,2.091h-18.307c-1.496,0-2.74,1.247-2.74,2.736v6.798h20.555c1.174,0,2.059,0.97,2.059,2.053
	c0,1.131-0.885,2.093-2.059,2.093h-20.555v7.403c0,1.49,1.244,2.775,2.74,2.775H124.734z"/>
<path fill="#FFFFFF" d="M157.521,0c1.207,0,2.094,0.927,2.094,2.09c0,1.087-0.887,2.094-2.094,2.094h-18.311
	c-1.519,0-2.771,1.248-2.771,2.734V25.27c0,1.484,1.253,2.771,2.771,2.771h18.311c1.207,0,2.094,0.968,2.094,2.058
	c0,1.165-0.887,2.088-2.094,2.088h-18.311c-3.814,0-6.915-3.1-6.915-6.916V6.919c0-3.818,3.101-6.919,6.915-6.919H157.521z"/>
<path fill="#FFFFFF" d="M189.711,0.042c3.826,0,6.926,3.095,6.926,6.918v18.347c0,3.822-3.1,6.922-6.926,6.922h-18.107
	c-3.816,0-6.917-3.1-6.917-6.922V6.96c0-3.823,3.101-6.918,6.917-6.918H189.711z M168.875,25.307c0,1.49,1.246,2.775,2.729,2.775
	h18.107c1.53,0,2.775-1.285,2.775-2.775V6.96c0-1.489-1.245-2.736-2.775-2.736h-18.107c-1.482,0-2.729,1.247-2.729,2.736V25.307z"/>
<path fill="#FFFFFF" d="M228.419,6.96c0-1.527-1.245-2.775-2.776-2.775h-16.74c-1.566,0-2.812,1.248-2.812,2.775v23.173
	c0,1.168-0.886,2.096-2.058,2.096c-1.161,0-2.048-0.928-2.048-2.096V6.96c0-3.823,3.098-6.918,6.918-6.918h16.74
	c3.819,0,6.919,3.095,6.919,6.918v23.173c0,1.168-0.888,2.096-2.087,2.096c-1.088,0-2.056-0.928-2.056-2.096V6.96z"/>
<path fill="#FFFFFF" d="M259.843,0.042c3.825,0,6.915,3.095,6.915,6.918v18.347c0,3.822-3.09,6.922-6.915,6.922h-20.8
	c-1.172,0-2.094-0.928-2.094-2.096v-28c0-1.086,1.008-2.091,2.094-2.091H259.843z M241.14,4.224v23.858h18.703
	c1.494,0,2.776-1.285,2.776-2.775V6.96c0-1.489-1.282-2.736-2.776-2.736H241.14z"/>
<path fill="#FFFFFF" d="M297.906,0.042c1.17,0,2.094,0.925,2.094,2.091c0,1.087-0.924,2.091-2.094,2.091h-19.193
	c-1.57,0-2.812,1.209-2.812,2.736v4.344c0,1.491,1.242,2.735,2.812,2.735h14.405c3.784,0,6.882,3.101,6.882,6.965v4.303
	c0,3.822-3.098,6.922-6.882,6.922H273.85c-1.169,0-2.055-0.928-2.055-2.096c0-1.125,0.886-2.051,2.055-2.051h19.269
	c1.485,0,2.741-1.244,2.741-2.775v-4.303c0-1.532-1.256-2.776-2.741-2.776h-14.405c-3.82,0-6.918-3.101-6.918-6.923V6.96
	c0-3.823,3.098-6.918,6.918-6.918H297.906z"/>
</svg>
